Coordinates
version=1
nRows=5
nColumns=107
inDegrees=yes

Units are S.I. units (second, meters, Newtons, ...)
If the header above contains a line with 'inDegrees', this indicates whether rotational values are in degrees (yes) or radians (no).

endheader
time	sternoclavicular_r2	sternoclavicular_r3	unrotscap_r3	unrotscap_r2	acromioclavicular_r2	acromioclavicular_r3	acromioclavicular_r1	unrothum_r1	unrothum_r3	unrothum_r2	elv_angle	shoulder_elv	shoulder1_r2	shoulder_rot	elbow_flexion	pro_sup	deviation	flexion	proximal_distal_r1	proximal_distal_r3	cmc_flexion	cmc_abduction	mp_flexion	ip_flexion	mcp2_flexion	mcp2_abduction	pm2_flexion	md2_flexion	mcp3_flexion	mcp3_abduction	pm3_flexion	md3_flexion	mcp4_flexion	mcp4_abduction	pm4_flexion	md4_flexion	mcp5_flexion	mcp5_abduction	pm5_flexion	md5_flexion	bicpt_tx	bicpt_ty	bicpt_tz	bicpt2_tx	bicpt2_ty	bicpt2_tz	ptpt_tx	ptpt_ty	ptpt_tz	FCUpt_tx	FCUpt_ty	FCUpt_tz	EDCpt_tx	EDCpt_ty	EDCpt_tz	APLpt_tx	APLpt_ty	APLpt_tz	FPLpt_tx	FPLpt_ty	FPLpt_tz	FPLpt2_tx	FPLpt2_ty	FPLpt2_tz	PEC1pt2_tx	PEC1pt2_ty	PEC1pt2_tz	PEC1pt3_tx	PEC1pt3_ty	PEC1pt3_tz	PEC2pt2_tx	PEC2pt2_ty	PEC2pt2_tz	PEC2pt3_tx	PEC2pt3_ty	PEC2pt3_tz	PEC3pt2_tx	PEC3pt2_ty	PEC3pt2_tz	PEC3pt3_tx	PEC3pt3_ty	PEC3pt3_tz	DELT2pt2a_tx	DELT2pt2a_ty	DELT2pt2a_tz	DELT2pt2_tx	DELT2pt2_ty	DELT2pt2_tz	LAT1pt2_tx	LAT1pt2_ty	LAT1pt2_tz	LAT1pt3_tx	LAT1pt3_ty	LAT1pt3_tz	LAT2pt2_tx	LAT2pt2_ty	LAT2pt2_tz	LAT2pt3_tx	LAT2pt3_ty	LAT2pt3_tz	LAT3pt2_tx	LAT3pt2_ty	LAT3pt2_tz	LAT3pt3_tx	LAT3pt3_ty	LAT3pt3_tz
      0.00000000	     -0.32032369	      0.13567400	     -0.13567400	      0.32032369	     -0.06485903	      0.52416787	      0.23560985	     -0.23560985	     -0.52416787	      0.06485903	     98.47959099	     75.83948011	     -1.71879311	    -24.89806435	     31.30280161	     39.84268761	      0.25858394	     -0.40237453	      0.29620518	     -0.20118726	     10.87619021	     13.91062060	    -40.89963456	    -64.91492176	     -2.64864422	     12.04804588	     15.06918537	    -12.50714050	     82.78704785	      7.61948739	     81.48893526	     36.44100526	     73.51073409	     -8.69652531	     80.21403738	     24.18610723	     28.45012755	    -13.93654629	    -16.11834435	      4.79405715	      0.00093540	     -0.03118778	     -0.00487790	      0.01657410	     -0.01870356	     -0.00748681	      0.00460607	     -0.06680359	     -0.00325954	      0.00776440	     -0.18349833	     -0.00038530	     -0.00478111	      0.00137385	      0.00014755	      0.00027612	      0.00011045	      0.00055223	      0.00035343	      0.00106029	      0.00059641	      0.00003150	     -0.00020619	     -0.00024743	      0.00248585	      0.00872155	      0.00606716	     -0.00813168	      0.01963402	     -0.01862282	      0.00248585	      0.00872155	      0.00606716	      0.00054773	      0.01820149	     -0.00956421	      0.00393552	      0.00484994	      0.01593721	      0.00000000	      0.00769155	      0.00000000	     -0.00712049	     -0.03290594	     -0.00634154	      0.01644225	     -0.00058692	     -0.00518088	     -0.00088479	      0.01483084	     -0.00606716	      0.00244372	      0.02140360	     -0.01769589	     -0.00594076	      0.01285059	     -0.00543517	     -0.01238713	      0.02713370	     -0.03037795	     -0.02325746	      0.01436738	     -0.00728902	     -0.01542071	      0.03134701	     -0.03796191
      0.03333333	     -0.32036829	      0.13569289	     -0.13569289	      0.32036829	     -0.06486806	      0.52424086	      0.23564266	     -0.23564266	     -0.52424086	      0.06486806	     98.47996148	     75.85004010	     -1.71879957	    -24.90307958	     31.30514231	     39.84002807	      0.25860605	     -0.40239812	      0.29622544	     -0.20119906	     10.87703499	     13.90936858	    -40.89932322	    -64.91473559	     -2.65170619	     12.04777353	     15.06872015	    -12.50747825	     82.78621466	      7.61907279	     81.48870380	     36.44076705	     73.51211576	     -8.69664819	     80.21425378	     24.18576804	     28.44984268	    -13.93689884	    -16.11869506	      4.79404458	      0.00093548	     -0.03118805	     -0.00487794	      0.01657408	     -0.01870420	     -0.00748709	      0.00460627	     -0.06680346	     -0.00325933	      0.00776414	     -0.18349839	     -0.00038527	     -0.00478079	      0.00137374	      0.00014756	      0.00027611	      0.00011044	      0.00055221	      0.00035342	      0.00106025	      0.00059639	      0.00003150	     -0.00020620	     -0.00024744	      0.00248620	      0.00872276	      0.00606801	     -0.00813282	      0.01963675	     -0.01862541	      0.00248620	      0.00872276	      0.00606801	      0.00054781	      0.01820402	     -0.00956554	      0.00393592	      0.00485062	      0.01593819	      0.00000000	      0.00769371	      0.00000000	     -0.00712148	     -0.03291052	     -0.00634333	      0.01644482	     -0.00058709	     -0.00518298	     -0.00088492	      0.01483291	     -0.00606801	      0.00244406	      0.02140658	     -0.01769836	     -0.00594159	      0.01285238	     -0.00543592	     -0.01238885	      0.02713748	     -0.03038218	     -0.02326070	      0.01436938	     -0.00729004	     -0.01542285	      0.03135138	     -0.03796719
      0.06666667	     -0.32317423	      0.13688135	     -0.13688135	      0.32317423	     -0.06543621	      0.52883241	      0.23770653	     -0.23770653	     -0.52883241	      0.06543621	     97.96603362	     76.51437071	     -1.70982984	    -21.88396514	     30.98408662	     37.54821631	      0.27979661	     -0.39723676	      0.31564564	     -0.19861838	     11.81164744	     11.96634003	    -41.10526259	    -65.14769002	     -3.27686532	     12.09012804	     16.03936369	    -15.90991051	     83.41376386	      7.79910433	     80.10331604	     39.17393978	     75.12373772	     -8.50576624	     78.24773809	     25.66630483	     29.20439531	    -13.95741774	    -16.37217287	      4.79011924	      0.00092486	     -0.03115125	     -0.00487201	      0.01656295	     -0.01861698	     -0.00772755	      0.00477561	     -0.06669397	     -0.00307471	      0.00753432	     -0.18354521	     -0.00036675	     -0.00450578	      0.00128143	      0.00016239	      0.00027428	      0.00010971	      0.00054857	      0.00035108	      0.00105325	      0.00059245	      0.00003003	     -0.00021779	     -0.00026134	      0.00250797	      0.00879916	      0.00612115	     -0.00820405	      0.01980874	     -0.01878854	      0.00250797	      0.00879916	      0.00612115	      0.00055260	      0.01836346	     -0.00964932	      0.00396107	      0.00489310	      0.01599965	      0.00000000	      0.00783003	      0.00000000	     -0.00718386	     -0.03319876	     -0.00645650	      0.01483967	     -0.00049049	     -0.00397982	     -0.00089267	      0.01496282	     -0.00612115	      0.00246547	      0.02159407	     -0.01785337	     -0.00599363	      0.01296495	     -0.00548353	     -0.01249736	      0.02737516	     -0.03064828	     -0.02346443	      0.01449523	     -0.00735389	     -0.01555794	      0.03162597	     -0.03829973
      0.10000000	     -0.32318554	      0.13688614	     -0.13688614	      0.32318554	     -0.06543850	      0.52885092	      0.23771485	     -0.23771485	     -0.52885092	      0.06543850	     97.98141423	     76.51704939	     -1.71009828	    -21.85727475	     30.90056545	     37.41633585	      0.27525536	     -0.41154383	      0.31154635	     -0.20577192	     12.11258179	     11.06711153	    -41.20967728	    -65.37455276	     -3.39931442	     12.06462413	     16.34177921	    -16.93184097	     83.44964850	      7.91364700	     80.05529497	     38.99519818	     75.25167361	     -8.40575036	     78.50904771	     25.26582621	     29.42992445	    -13.96301153	    -16.65161210	      4.81691040	      0.00092209	     -0.03114168	     -0.00487047	      0.01656195	     -0.01859429	     -0.00774116	      0.00478535	     -0.06668767	     -0.00306409	      0.00752115	     -0.18354786	     -0.00036557	     -0.00448995	      0.00127617	      0.00016316	      0.00027923	      0.00011169	      0.00055846	      0.00035741	      0.00107224	      0.00060313	      0.00002952	     -0.00022132	     -0.00026558	      0.00250806	      0.00879947	      0.00612137	     -0.00820434	      0.01980943	     -0.01878920	      0.00250806	      0.00879947	      0.00612137	      0.00055262	      0.01836411	     -0.00964966	      0.00396117	      0.00489327	      0.01599989	      0.00000000	      0.00783058	      0.00000000	     -0.00718411	     -0.03319993	     -0.00645695	      0.01482495	     -0.00048965	     -0.00396976	     -0.00089270	      0.01496335	     -0.00612137	      0.00246555	      0.02159483	     -0.01785399	     -0.00599384	      0.01296540	     -0.00548373	     -0.01249780	      0.02737612	     -0.03064936	     -0.02346525	      0.01449574	     -0.00735414	     -0.01555848	      0.03162707	     -0.03830107
      0.13333333	     -0.32322789	      0.13690408	     -0.13690408	      0.32322789	     -0.06544707	      0.52892021	      0.23774600	     -0.23774600	     -0.52892021	      0.06544707	     97.91362378	     76.52707503	     -1.70891512	    -21.78238843	     31.02512667	     36.98170460	      0.27217958	     -0.40725295	      0.30874976	     -0.20362647	     11.47962433	     11.27921755	    -40.94670602	    -64.18698088	     -4.04703169	     12.13665978	     17.83276448	    -17.66888748	     82.50611214	      7.72227517	     80.63086525	     41.56528604	     75.06398956	     -8.71454006	     78.17558905	     26.81890132	     28.95791290	    -13.94479052	    -17.49753455	      4.83671646	      0.00092621	     -0.03115595	     -0.00487277	      0.01655835	     -0.01862813	     -0.00778585	      0.00481747	     -0.06666690	     -0.00302907	      0.00747776	     -0.18355656	     -0.00036156	     -0.00443779	      0.00125887	      0.00016562	      0.00027778	      0.00011111	      0.00055556	      0.00035556	      0.00106668	      0.00060001	      0.00003057	     -0.00021378	     -0.00025654	      0.00250839	      0.00880062	      0.00612217	     -0.00820541	      0.01981203	     -0.01879166	      0.00250839	      0.00880062	      0.00612217	      0.00055270	      0.01836651	     -0.00965092	      0.00396155	      0.00489391	      0.01600081	      0.00000000	      0.00783264	      0.00000000	     -0.00718505	     -0.03320428	     -0.00645867	      0.01478355	     -0.00048730	     -0.00394167	     -0.00089282	      0.01496531	     -0.00612217	      0.00246587	      0.02159766	     -0.01785633	     -0.00599463	      0.01296710	     -0.00548445	     -0.01249943	      0.02737971	     -0.03065337	     -0.02346832	      0.01449764	     -0.00735511	     -0.01556052	      0.03163122	     -0.03830608
